<svg width="27" height="26" viewBox="0 0 27 26" fill="none" xmlns="http://www.w3.org/2000/svg">
<path fill-rule="evenodd" clip-rule="evenodd" d="M0.25 1C0.25 0.585786 0.585786 0.25 1 0.25H3.58624C4.29596 0.25 4.93539 0.678642 5.20503 1.33514L6.43416 4.32781H24.0893C25.1866 4.32781 26.0132 5.32602 25.8087 6.40408L24.5464 13.0558C24.4005 13.8244 23.7623 14.4028 22.9831 14.4726L8.90438 15.7334L7.64799 17.5271C7.53193 17.6928 7.65046 17.9205 7.85275 17.9205H22.0404C22.4546 17.9205 22.7904 18.2563 22.7904 18.6705C22.7904 19.0847 22.4546 19.4205 22.0404 19.4205H7.85275C6.43673 19.4205 5.60701 17.8263 6.4194 16.6665L7.67774 14.87L5.21798 5.31489L3.8175 1.90502C3.77898 1.81123 3.68763 1.75 3.58624 1.75H1C0.585786 1.75 0.25 1.41421 0.25 1ZM6.89892 5.82781L9.05767 14.2136L22.8493 12.9786C22.9607 12.9686 23.0518 12.886 23.0727 12.7762L24.335 6.12442C24.3642 5.97041 24.2461 5.82781 24.0893 5.82781H6.89892Z" fill="white"/>
<path fill-rule="evenodd" clip-rule="evenodd" d="M9.00689 24.3492C9.55084 24.3492 9.9918 23.9082 9.9918 23.3642C9.9918 22.8203 9.55084 22.3793 9.00689 22.3793C8.46293 22.3793 8.02197 22.8203 8.02197 23.3642C8.02197 23.9082 8.46293 24.3492 9.00689 24.3492ZM9.00689 25.8492C10.3793 25.8492 11.4918 24.7366 11.4918 23.3642C11.4918 21.9919 10.3793 20.8793 9.00689 20.8793C7.63451 20.8793 6.52197 21.9919 6.52197 23.3642C6.52197 24.7366 7.63451 25.8492 9.00689 25.8492Z" fill="white"/>
<path fill-rule="evenodd" clip-rule="evenodd" d="M20.6032 24.3492C21.1472 24.3492 21.5881 23.9082 21.5881 23.3642C21.5881 22.8203 21.1472 22.3793 20.6032 22.3793C20.0592 22.3793 19.6183 22.8203 19.6183 23.3642C19.6183 23.9082 20.0592 24.3492 20.6032 24.3492ZM20.6032 25.8492C21.9756 25.8492 23.0881 24.7366 23.0881 23.3642C23.0881 21.9919 21.9756 20.8793 20.6032 20.8793C19.2308 20.8793 18.1183 21.9919 18.1183 23.3642C18.1183 24.7366 19.2308 25.8492 20.6032 25.8492Z" fill="white"/>
</svg>
