<svg width="26" height="25" viewBox="0 0 26 25" fill="none" xmlns="http://www.w3.org/2000/svg">
<path fill-rule="evenodd" clip-rule="evenodd" d="M17.4602 6.49404C17.4602 9.20198 15.265 11.3972 12.5571 11.3972C9.84912 11.3972 7.6539 9.20198 7.6539 6.49404C7.6539 3.7861 9.84912 1.59088 12.5571 1.59088C15.265 1.59088 17.4602 3.7861 17.4602 6.49404ZM18.9602 6.49404C18.9602 10.0304 16.0934 12.8972 12.5571 12.8972C9.0207 12.8972 6.1539 10.0304 6.1539 6.49404C6.1539 2.95767 9.0207 0.0908813 12.5571 0.0908813C16.0934 0.0908813 18.9602 2.95767 18.9602 6.49404ZM23.4611 24.0202C23.5805 24.3813 23.9113 24.6364 24.2916 24.6364C24.8382 24.6364 25.2418 24.1246 25.0769 23.6034C23.3023 17.9971 18.3674 13.9644 12.5571 13.9644C6.74682 13.9644 1.81183 17.9971 0.0373115 23.6034C-0.127646 24.1246 0.275973 24.6364 0.822612 24.6364C1.20287 24.6364 1.53372 24.3813 1.65306 24.0202C3.24746 19.1966 7.52749 15.7431 12.5571 15.7431C17.5867 15.7431 21.8667 19.1966 23.4611 24.0202Z" fill="white"/>
</svg>
